<svg version="1.1" id="Layer_1" xmlns="http://www.w3.org/2000/svg" x="0" y="0" viewBox="0 0 349.2 267.4" xml:space="preserve"><style>.st0{fill:#fff}</style><g transform="matrix(.88576 .46411 -.46411 .88576 274.45 370.35)"><path d="M-44.6-99.2c-.7-1.4-5.5-.3-14.4 3-8.9 3.5-19.2 8.3-31 14.5-11.7 6.2-21.5 12-29.4 17.3-7.8 5.3-11.4 8.7-10.7 10.1.7 1.4 5.5.4 14.4-3.1 8.9-3.4 19.2-8.2 31-14.4 11.8-6.2 21.6-11.9 29.4-17.3 7.9-5.4 11.4-8.7 10.7-10.1z" id="egg_0_Layer2_0_FILL"/></g><g transform="matrix(.88576 .46411 -.46411 .88576 274.45 370.35)"><path class="st0" d="M-82.2-219.9c-9.1-9.6-17.9-14.5-26.2-14.5-6.5 0-13.3 3-20.5 9.1-6.8 5.7-13.1 13.4-19.1 23.2-5.9 9.8-10.6 20.2-14.1 31.4-1 3.3-1.9 6.6-2.7 9.9-.1.4-.2.9-.2 1.3-1.7 7.8-2.6 15.3-2.6 22.5 0 19.8 6.3 35.4 19 46.7 5.4 4.9 11.8 8.7 18.9 11.3 6.8 2.4 13.9 3.6 21.2 3.6 5.9 0 11.7-.8 17.3-2.3 1.3-.4 2.7-.8 4-1.2 6.5-2.3 12.3-5.6 17.4-9.8.6-.5 1.1-.9 1.7-1.4 12.6-11.3 18.9-26.7 18.9-46.3 0-7.7-1-15.7-2.9-24.1-1.8-7.9-4.5-15.8-8-23.8v-.4c-6-14.3-13.3-26-22.1-35.2z" id="egg_0_Layer1_0_FILL"/></g><g transform="matrix(.88576 .46411 -.46411 .88576 274.45 370.35)"><path id="egg_0_Layer1_0_1_STROKES" d="M-60.1-184.4c3.5 7.9 6.1 15.9 8 23.8 1.9 8.4 2.9 16.4 2.9 24.1 0 19.6-6.3 35-18.9 46.3-.5.5-1.1.9-1.6 1.4-5.1 4.2-10.9 7.5-17.4 9.8-1.3.5-2.6.9-3.9 1.2-5.6 1.6-11.3 2.3-17.3 2.3-7.3 0-14.4-1.2-21.2-3.6-7.2-2.6-13.5-6.4-18.9-11.3-12.6-11.3-19-26.9-19-46.7 0-7.2.9-14.7 2.6-22.5.1-.4.2-.8.3-1.3.7-3.2 1.6-6.5 2.7-9.9 3.5-11.2 8.2-21.6 14.1-31.4 5.9-9.8 12.3-17.5 19.1-23.2 7.2-6 14-9.1 20.5-9.1 8.3 0 17 4.8 26.2 14.5 8.7 9.2 16.1 20.9 22.1 35.1" fill="none" stroke="#000" stroke-width="8" stroke-linecap="round" stroke-linejoin="round"/></g><g transform="matrix(.88576 .46411 -.46411 .88576 274.45 370.35)"><path id="egg_0_Layer0_0_1_STROKES" d="M-149.1-113.6c-1.1-2-2.1-4.1-2.9-6.3m54.7 28c-3.5.8-7.2 1.1-10.9 1.1-5.8 0-11.5-1-16.9-2.9-5.3-1.9-10.1-4.7-14.2-8.2m62.1.4c-2.1 1.7-4.4 3.3-6.8 4.6" fill="none" stroke="#000" stroke-width="6" stroke-linecap="round" stroke-linejoin="round"/></g><g transform="rotate(-50.714 589.681 -138.51)"><g id="acorn_0_Layer1_0_FILL"><path d="M151.8-173.8h-12.1c-1-2-1.6-5.2-1.8-9.8 0-1.1-.5-2-1.2-2.8-.8-.7-1.7-1.1-2.8-1.1h-7.7c-1.1 0-2 .4-2.8 1.1-.8.8-1.2 1.7-1.2 2.8-.2 4.5-.8 7.8-1.8 9.8h-12.2c-5.9.3-11.5 3.4-16.8 9.5 0 .1-.1.2-.2.2-2 2.7-3.2 5.8-3.7 9.4-.9 8.6 1 13.8 5.7 15.8.2.1.5.3.8.4-.1 3 0 6.1.2 9.4.3 4.6.9 9.5 1.9 14.7v.2c2.6 10.9 10.9 21 24.8 30.1 0 0 .1 0 .1.1.7.5 1.2 1.4 1.7 2.5v-.1c1.6 4.5 4.1 6.6 7.3 6.2 3.2.5 5.6-1.6 7.3-6.2l-.1.1c.5-1.1 1-2 1.6-2.5.1 0 .1 0 .2-.1 13.9-9.1 22.2-19.2 24.8-30.1 0-.1.1-.2.1-.2 1-5.2 1.7-10.1 2-14.7v-.1c.2-3.3.3-6.4.2-9.4.3-.1.5-.2.8-.4h-.1c4.7-1.9 6.6-7.2 5.6-15.7-.4-3.6-1.6-6.7-3.6-9.4-.1-.1-.1-.2-.2-.2-5.3-6-10.9-9.2-16.8-9.5m-6.1 9.3l1.3-1.3h4.2c3.5.3 6.9 2.2 10.1 5.5l-5.7 5.7-9.9-9.9m-12.9 12.9l10.1-10 9.9 9.9-5.9 5.9h-8.2l-5.9-5.8m-2.9 2.9l3 2.9h-6l3-2.9m33.7-8.2c.4 1 .6 2 .8 3.1v.1c.4 3.4.1 5.8-.8 7.1l-5.1-5.1 5.1-5.2m-8 8l3.1 3.1h-6.2l3.1-3.1M130-83.4s.1 0 0 0h-.1.1m-34.6-70.4c.1-1.1.4-2.1.8-3.1l5.2 5.2-5.1 5.1c-.9-1.3-1.2-3.7-.9-7.2m5.7 8l3.1-3.1 3.1 3.1h-6.2m26-5.7l-5.8 5.8H113l-5.9-5.9 9.9-9.9 10.1 10m30.7 21.8c-.3 4.3-.9 8.8-1.8 13.6-2.4 9.1-9.5 17.5-21.3 25.2 0 0 0 .1-.1 0l-.1.1c-1.9 1.1-3.5 3.1-4.6 5.9-1.2-2.8-2.7-4.8-4.6-5.9 0 0-.1-.1-.2-.1-11.7-7.7-18.8-16.1-21.2-25.1v-.1c-.9-4.8-1.5-9.4-1.7-13.7-.2-2.8-.3-5.5-.2-8.1h56c.1 2.7 0 5.4-.2 8.2m-45-36.1l1.3 1.3-9.9 9.9-5.7-5.7c3.2-3.3 6.6-5.2 10-5.5h4.3m25.9 0l1.3 1.3-10.1 10.1-10.1-10.1 1.3-1.3h17.6z"/><path class="st0" d="M140-164.5l-1.3-1.3h-17.6l-1.3 1.3 10.1 10.1 10.1-10.1m-25.9 0l-1.3-1.3h-4.2c-3.5.3-6.8 2.2-10 5.5l5.7 5.7 9.8-9.9m41.9 48.4c.9-4.8 1.5-9.3 1.8-13.6.2-2.8.3-5.5.2-8.1h-56.1c0 2.6 0 5.3.2 8.1.3 4.3.9 8.8 1.7 13.7v.1c2.5 9 9.5 17.4 21.2 25.1.1 0 .1.1.2.1 1.9 1.1 3.5 3.1 4.6 5.9 1.2-2.8 2.7-4.8 4.6-5.9l.1-.1h.1c11.9-7.8 19-16.2 21.4-25.3m-34.7-29.7l5.8-5.8-10.1-10-9.9 9.9 5.9 5.9h8.3m-17.1-3.1l-3.1 3.1h6.2l-3.1-3.1m-8-8c-.4 1-.7 2-.8 3.1v.1c-.4 3.4-.1 5.8.8 7.1l5.1-5.1-5.1-5.2m62.5 11.1l-3.1-3.1-3.1 3.1h6.2m5.7-8c-.1-1.1-.4-2.1-.8-3.1l-5.1 5.1 5.1 5.1c.9-1.2 1.2-3.6.8-7.1m-31.5 8l-3-2.9-3 2.9h6m10-15.8l-10.1 10 5.8 5.8h8.2l5.9-5.9-9.8-9.9m4.1-4.2l-1.3 1.3 9.9 9.9 5.7-5.7c-3.2-3.3-6.6-5.2-10.1-5.5H147z"/></g></g><g transform="rotate(-50.714 589.681 -138.51)"><path id="acorn_0_Layer0_0_1_STROKES" d="M117.9-105.8c-4.6-4.8-7.6-9.9-9-15.1l-.1-.1c-.5-2.9-1-5.6-1.3-8.3M126.9-98c-.2-.2-.4-.3-.7-.5-.4-.3-.9-.7-1.3-1" fill="none" stroke="#000" stroke-width="4" stroke-linecap="round" stroke-linejoin="round"/></g><g transform="translate(225.15 323.15)"><path d="M-96.5-135.3l-2.3 4.9c-1.7 4.4-3.2 9.5-4.3 15.1-3.5 15.9-4.4 33.9-2.8 54.2h4.8c-.7-4.8-1.2-9.9-1.5-15.5-.7-15.7 2-33.9 8.2-54.5.4-.7.7-1.4.8-2.1.1-1.5-.9-2.2-2.9-2.1m-2.3-1.8c5.5-5.4 5-14.6-1.7-27.6l-11.4-17.9c-2.6 16.3-1.2 28.7 4.1 37.4 2.8 4.4 5.7 7.1 9 8.1m5.9 1.3c1.2 2.5 3.8 4 7.8 4.6 7.9 1.2 18.4-3.1 31.8-12.9-5.6-1.5-11.5-2.3-17.7-2.4-12.3-.2-19.6 3.4-21.9 10.7m9.9-17.6c2.2 2.4 4.7 4.1 7.5 4.9 9.4 2.4 21.3-3.9 35.7-19.1-11.3-1.2-19.6-1.3-24.8-.4-6.7 1.1-13.6 4.8-20.7 11.2l2.3 3.4m32.4-42.2c-2.5.2-5.4.9-8.7 2-6.5 2.4-11.5 6.2-15 11.4l8.8 5.6c6.9 3.3 13.1 3.8 18.5 1.5 5.3-2.2 11.9-6.2 19.6-12.2 3.9-3 7.2-5.8 9.9-8.3h-33.1m-44.2-2.1l-5.7-11.7c-6.3 20-6 34.8 1.1 44.2 3.4 4.8 7.5 7.5 12.3 8.2 1.4-5.4 1.9-10.1 1.8-14.1-.1-3.1-.7-6.2-1.8-9.4-1.1-2.9-3.7-8.7-7.7-17.2m24.6-2.7v-9l-11.4-29.4-3.9 10.2c-2.8 8-4.6 14.8-5.4 20.6-.8 5.8 1.2 11.7 6 17.6 2.4 3 4.9 5.4 7.4 7.2 4.2-4.6 6.6-10.3 7.3-17.2m22-38.4c.3-4.6-.9-11.7-3.5-21.4l-4-13.1c-3.6 4.9-7.8 12.6-12.3 23.3-2.4 5.3-4.4 10.2-6 14.6-1.3 7 .7 13.1 5.8 18.1 2.5 2.5 5.2 4.4 8 5.6 4.6-4.2 8-10 10.2-17.4l1.8-9.7m10.1-1c6.1-5.5 10.4-10.8 12.9-15.9 1.2-2.5 1.8-4.5 1.8-6l-1.9-31.6-17.1 24.6c-5.3 6.7-6.1 13.5-2.6 20.5 1.7 3.6 4 6.4 6.9 8.4m21.8 32.2c11-6.5 18.7-11.9 23-16.2-18.6-2.4-31.6-2.8-38.9-1.2-2.7.6-5.8 1.8-9.2 3.4-6.8 3.3-12 7.5-15.5 12.6l6.8 7.1c5.8 4.3 12 5.3 18.7 2.9 4.6-2.4 9.7-5.2 15.1-8.6m3.5-43.8c-1.5-.1-3.5.4-6 1.5-5.2 2.1-10.8 6.1-16.5 12l7.9 7.3c6.7 3.9 13.5 3.4 20.4-1.5L22.3-250l-35.1-1.4m11.5-25c1.4-2.4 2.1-4.4 2.2-6.2V-308l-18.3 23.3c-3.8 4.7-4.5 9.4-2.2 14.1 1.2 2.3 2.8 4.2 4.8 5.5 6.4-2.7 10.9-6.4 13.5-11.3m11.4 3c-1.6-.5-3.7-.4-6.2.2-5.1 1.4-9.7 4.8-13.9 10.3l4.6 4.6c4.2 2.5 9 2.5 14.4-.1l33.8-15H10.1m19.4-6l10.3-4.9c7.3-3.4 12.1-5.4 14.2-5.9-14.4-4.8-28.3-2.4-41.8 7.2l3.4 3.4c3.5 2 8.1 2 13.9.2m-5.1-13.7c12.4-3.5 22.9-9.5 31.5-18.1 4.3-4.3 7.4-8.3 9.2-11.9-18.8 6.9-31.2 13.9-37.3 21.1-1.9 2.3-3 4.4-3.4 6.5-.2 1-.2 1.8 0 2.4M9.5-303.5c-3.9 4.6-5.2 9.1-4 13.3.6 2.2 1.6 3.9 3 5.1 8.7-6.6 14.4-15 17.2-25.2 1-3.5 1.4-6.5 1.1-8.8-.2-2.3-.7-2.8-1.5-1.6-1.3 1.8-4.3 5.2-9.1 10.3l-6.7 6.9z" id="gluten_0_Layer1_0_FILL"/></g><g transform="translate(225.15 323.15)"><path d="M-124.4-75.7c5.1 4.7 10.3 9.8 15.6 15.3 1.6 1.9 5.1 2.4 10.4 1.5.8-.2 1.4-.8 1.8-2 1.4-5 3.2-9.9 5.3-14.8 15.4-33.7 51.1-62.8 107.2-87.2-32.7 3.8-72.7 25.2-120.2 64.2-24.2-72.4-64.5-105.7-120.9-99.7 47.2 4.3 82 38.9 104.3 104-32.5-31.2-61.8-38.9-88-23 21.8-4.4 49.9 9.5 84.5 41.7z" id="gluten_0_Layer0_0_FILL"/></g></svg>