<svg width="56" height="52" fill="none" xmlns="http://www.w3.org/2000/svg"><g clip-path="url(#clip0)"><path d="M40.771 32.439a20.66 20.66 0 01-1.07-.546 17.255 17.255 0 01-2.313 5.35 20.806 20.806 0 01-1.788 2.301l.953.96c1.602-1.624 2.722-3.29 3.363-4.996.353-.947.638-1.97.855-3.07zm7.439-2.096a24.258 24.258 0 01-4.886 2.683 16.552 16.552 0 01-2.35 4.94c-.893 1.29-1.993 2.512-3.301 3.667l5.57 5.612 4.968-5.009V30.343zM26.752 8.201V3.676H0l10.302 10.38c1.786-1.56 4-2.874 6.645-3.943 3.36-1.362 6.629-2 9.805-1.912zm.761 13.637h-.106c-.026.008-1.316.36-3.868 1.054a194.51 194.51 0 01-3.498.977l5.46 5.501c2.004-.306 4.431-.593 7.281-.861.804-.072 1.456-.126 1.959-.164a24.36 24.36 0 01-2.732-2.975 27.463 27.463 0 00-.709-.172c-.804-.186-1.413-.328-1.828-.427-.326-.071-.498-.114-.517-.13a4.604 4.604 0 01-.13-.296 47.136 47.136 0 01-.611-1.588c-.141-.355-.22-.551-.236-.587a.599.599 0 00-.465-.332zm-8.738-9.575c.052-.072-.036-.089-.264-.054-1.456.257-2.908.809-4.357 1.654a14.782 14.782 0 00-2.354 1.702l.416.419c1.729-1.527 3.87-2.723 6.425-3.59a.323.323 0 00.134-.131z" fill="#C8102E"/><path d="M43.324 33.026a18.25 18.25 0 01-.615.242 23.378 23.378 0 01-1.938-.83 19.75 19.75 0 01-.855 3.07c-.64 1.706-1.761 3.372-3.363 4.996l1.12 1.129c1.308-1.155 2.408-2.377 3.302-3.668a16.551 16.551 0 002.35-4.94zm-10.542-4.517c-2.85.268-5.277.555-7.28.861L35.6 39.544a20.816 20.816 0 001.788-2.301 17.255 17.255 0 002.313-5.35 24.083 24.083 0 01-3.535-2.334 25.352 25.352 0 01-1.425-1.215c-.502.039-1.155.093-1.959.165zm-6.03-18.462V8.201c-3.176-.088-6.444.55-9.805 1.912-2.644 1.069-4.86 2.383-6.645 3.942l1.498 1.51a14.786 14.786 0 012.354-1.703c1.45-.845 2.901-1.396 4.357-1.653.228-.035.316-.018.264.053a.324.324 0 01-.134.132c-2.555.867-4.697 2.063-6.425 3.59l7.826 7.885c.814-.216 1.98-.542 3.497-.977l3.869-1.054h.105a.599.599 0 01.465.332c.016.035.095.231.236.587.326.872.53 1.401.61 1.587.08.187.123.285.13.296.02.016.192.06.518.131.415.099 1.024.24 1.828.427.25.057.486.115.709.172a25.099 25.099 0 01-.88-1.206 24.687 24.687 0 01-3.229-6.642 24.722 24.722 0 01-1.148-7.475z" fill="#fff"/><path d="M41.162 29.584a18.523 18.523 0 01-.985-.497c-.095.97-.254 1.906-.477 2.806.35.191.707.374 1.071.546.177-.9.307-1.853.391-2.855zm7.048-2.47a20.07 20.07 0 01-4.3 2.63c0 .041-.004.082-.007.122a17.283 17.283 0 01-.579 3.16 24.258 24.258 0 004.887-2.684v-3.228zM29.41 8.443V5.19a6.773 6.773 0 002.916-1.514h-5.574v4.525c.893.024 1.78.104 2.659.242zm-2.227 3.003l1.137.12a14 14 0 011.107.225 29.71 29.71 0 01-.016-.71 59.576 59.576 0 00-.322-.086 7.959 7.959 0 00-1.445-.283l-.448-.012-.212.2c-.098.179-.031.36.2.546zm4.826 13.924a24.351 24.351 0 002.732 2.974c.401-.032.706-.055.912-.065.239 0 .376-.004.411-.012.345-.08.552-.315.623-.706v-.123a.676.676 0 00-.293-.451 5.424 5.424 0 00-.5-.28 7.423 7.423 0 00-.917-.373 24.067 24.067 0 00-2.968-.964zm-12.305-1.41c-.082.034-.175.145-.281.331-.283.526-.495.917-.635 1.174-.31.623-.553 1.091-.73 1.403-.059.115-.173.216-.341.303-.75.367-1.297.643-1.641.83-1.334.719-2.755 1.647-4.264 2.785l-.382.32c-.177.145-.275.225-.293.242a.645.645 0 00-.184.332v.094c.052.257.228.4.53.427h.118c5.877-1.28 9.79-2.102 11.743-2.466a53.44 53.44 0 012.158-.365l-5.46-5.501-.102.024-.236.066z" fill="#A2102E"/><path d="M12.216 15.984l-.416-.419c-1.764 1.562-3.16 3.55-4.186 5.965a16.068 16.068 0 00-1.282 5.108c-.071.88-.071 1.594 0 2.138v.279c-.063.194-.253.3-.57.32-.373.027-.658-.413-.86-1.322-.203-.88-.252-1.858-.146-2.933.407-4.515 2.256-8.203 5.546-11.064L0 3.676v38.56L9.691 52H38.52l4.723-4.755-5.57-5.612a28.669 28.669 0 01-3.767 2.773c-.698.4-1.342.64-1.934.722-.51.072-.783.023-.818-.147-.027-.154.039-.314.2-.48.2-.205.596-.478 1.188-.817 1.094-.604 2.282-1.52 3.563-2.744.152-.146.301-.29.448-.435l-.953-.96a19.371 19.371 0 01-5.228 4.115c-3.247 1.761-6.883 2.57-10.909 2.428-3.751-.125-6.915-1.362-9.491-3.708a12.68 12.68 0 01-2.398-2.934c-.538-.9-.864-1.696-.978-2.387l.118-.591c.16-.337.46-.363.9-.078 1.008 1.643 2.385 3.178 4.133 4.603 2.832 2.303 5.77 3.374 8.816 3.212.114-.087.104-.176-.029-.266-1.411-.044-2.95-.44-4.617-1.186-3.214-1.45-5.76-3.89-7.639-7.323-.857-1.255-1.29-3.377-1.299-6.363-.016-2.809.306-5.063.965-6.761.815-2.074 1.875-3.825 3.18-5.256a15.44 15.44 0 011.091-1.066z" fill="#A2102E"/><path d="M5.774 30.68c.212.133.366.313.464.537.22.486.33 1.01.33 1.57 0 .364.045.77.134 1.215.063.293.063.498 0 .615-.132.23-.425.31-.875.239-.53-.088-.961-.444-1.295-1.067-.364-.684-.47-1.391-.318-2.121.141-.695.428-1.073.86-1.133h.012c.238-.035.468.013.688.144z" fill="#A2102E"/><path d="M43.91 29.744c-.392.18-.792.346-1.2.5-.528-.2-1.044-.419-1.548-.66a26.19 26.19 0 01-.39 2.855c.629.304 1.276.58 1.938.829.206-.076.41-.158.614-.242.288-1.018.48-2.07.579-3.16l.008-.122zm8.352-22.048a10.898 10.898 0 01-2.199-1.706 10.893 10.893 0 01-1.694-2.216h-5.66v10.023l5.172-4.295 1.478 1.957-6.65 6.81v7.88a16.305 16.305 0 003.64-2.375 16.472 16.472 0 002.928-3.257 16.729 16.729 0 002.22-4.587 16.8 16.8 0 00.765-5.038V7.696zM28.32 11.565l-1.136-.119c-.23-.186-.298-.368-.2-.546l.212-.2.448.012c.415.035.897.13 1.445.283.109.028.216.057.322.086V8.442a20.7 20.7 0 00-2.659-.241v1.846c0 2.554.383 5.046 1.148 7.475a24.686 24.686 0 003.23 6.642c.282.413.575.815.879 1.206a24.095 24.095 0 012.968.964c.293.096.599.22.916.373.255.132.422.224.501.28a.676.676 0 01.293.45v.124c-.07.391-.278.626-.623.706a3.413 3.413 0 01-.411.012c-.206.01-.51.033-.912.065.458.421.934.827 1.425 1.215a24.097 24.097 0 003.534 2.334c.223-.9.38-1.835.477-2.806a20.34 20.34 0 01-2.92-1.932 20.383 20.383 0 01-4.198-4.497 20.666 20.666 0 01-2.691-5.534 20.642 20.642 0 01-.94-5.333 14.61 14.61 0 00-1.108-.226zm4.222 32.119c-.592.34-.988.611-1.189.817-.16.166-.226.326-.2.48.036.17.308.219.819.147.592-.082 1.236-.322 1.934-.722a28.668 28.668 0 003.767-2.773l-1.12-1.128c-.147.145-.296.29-.448.435-1.281 1.225-2.47 2.14-3.563 2.744zm-20.326-27.7a15.44 15.44 0 00-1.092 1.066c-1.305 1.43-2.365 3.182-3.18 5.256-.66 1.698-.981 3.952-.965 6.76.008 2.988.442 5.109 1.3 6.364 1.878 3.432 4.424 5.873 7.638 7.323 1.667.747 3.206 1.142 4.617 1.186.133.09.143.178.029.266-3.046.162-5.984-.909-8.816-3.212-1.748-1.425-3.125-2.96-4.133-4.603-.44-.285-.74-.258-.9.078l-.118.59c.114.692.44 1.488.978 2.388a12.682 12.682 0 002.398 2.934c2.576 2.346 5.74 3.583 9.491 3.708 4.026.142 7.662-.667 10.909-2.428a19.367 19.367 0 005.228-4.115L25.502 29.37a53.81 53.81 0 00-2.158.366c-1.952.363-5.866 1.185-11.743 2.465h-.118c-.302-.027-.478-.17-.53-.426v-.095a.646.646 0 01.184-.332c.018-.017.116-.097.293-.242l.382-.32c1.51-1.138 2.93-2.066 4.264-2.786.344-.186.891-.462 1.64-.828.17-.088.283-.19.343-.304.176-.312.419-.78.729-1.403.14-.257.352-.648.635-1.174.106-.186.2-.297.28-.332l.237-.066.102-.024-7.827-7.885z" fill="#E3EBEF"/><path d="M6.238 31.216a1.184 1.184 0 00-.464-.537 1.018 1.018 0 00-.688-.143h-.012c-.432.06-.719.437-.86 1.132-.152.73-.046 1.437.318 2.12.334.624.766.98 1.295 1.068.45.07.743-.009.875-.239.063-.117.063-.322 0-.615a6.213 6.213 0 01-.134-1.214c0-.56-.11-1.085-.33-1.571zM11.8 15.565l-1.498-1.51c-3.29 2.862-5.139 6.55-5.546 11.065-.106 1.075-.057 2.053.146 2.933.202.909.487 1.349.86 1.322.317-.02.507-.126.57-.32v-.28c-.071-.543-.071-1.256 0-2.137.14-1.75.568-3.453 1.282-5.108 1.026-2.414 2.421-4.403 4.186-5.965z" fill="#E3EBEF"/><path d="M42.71 18.268v-4.471l-1.544 1.276-2.772-2.031-1.918 1.702 4.609 5.174.004-.017.008.017 1.613-1.65z" fill="#142630"/><path d="M42.71 13.797v4.472l6.649-6.81-1.478-1.957-5.171 4.295z" fill="#23495D"/><path d="M33.157 7.696v3.196a17.234 17.234 0 00.175 2.458c.128.874.324 1.734.587 2.58a16.812 16.812 0 002.223 4.587 16.73 16.73 0 005.081 4.829c.48.292.976.56 1.487.804v-7.881l-1.613 1.649-.008-.016-.004.016-4.61-5.173 1.919-1.703 2.772 2.03 1.544-1.275V3.774h-5.66a10.893 10.893 0 01-1.694 2.216 10.9 10.9 0 01-2.199 1.706z" fill="#BAD1D6"/><path d="M32.705 3.319c-.123.125-.25.244-.379.357a6.773 6.773 0 01-2.915 1.514v5.891a20.643 20.643 0 00.957 6.043 20.668 20.668 0 002.691 5.534 20.383 20.383 0 004.198 4.497 20.34 20.34 0 002.92 1.932c.324.176.652.34.985.497.504.24 1.02.46 1.548.66V26.15a16.715 16.715 0 01-1.487-.804 16.686 16.686 0 01-5.082-4.829 16.814 16.814 0 01-2.222-4.587 16.961 16.961 0 01-.685-3.405 17.235 17.235 0 01-.077-1.633V7.696a10.898 10.898 0 002.199-1.706 10.893 10.893 0 001.694-2.216h5.66V0h-8.144a6.914 6.914 0 01-1.86 3.319z" fill="#EC5A53"/><path d="M52.714 3.319A6.914 6.914 0 0150.854 0H42.71v3.774h5.66c.474.818 1.04 1.557 1.693 2.216a10.898 10.898 0 002.2 1.706v3.196c0 1.726-.256 3.405-.766 5.038a16.73 16.73 0 01-2.22 4.587 16.697 16.697 0 01-2.927 3.257 16.313 16.313 0 01-3.64 2.376v4.094c.408-.154.808-.32 1.2-.5a20.075 20.075 0 004.252-2.59l.049-.04a20.263 20.263 0 004.145-4.456 20.61 20.61 0 002.695-5.534c.633-2.024.949-4.1.949-6.232V5.19a6.81 6.81 0 01-3.286-1.871z" fill="#F2A445"/></g><defs><clipPath id="clip0"><path fill="#fff" d="M0 0h56v52H0z"/></clipPath></defs></svg>