<svg xmlns="http://www.w3.org/2000/svg" preserveAspectRatio="none" width="64" height="64"><path fill="#E16642" d="M64 7q0-2.9-2.05-4.95Q59.9 0 57 0H7Q4.1 0 2.05 2.05 0 4.1 0 7v50q0 2.95 2.05 4.95Q4.1 64 7 64h50q2.9 0 4.95-2.05Q64 59.9 64 57V7z"/><path fill="#E16642" d="M49.6 24q-1.55.1-2.7 1.05 1.9.25 3.85 2-.5.65-3.15 3.1-1.05-.3-2.35-.3-4.65 0-9.05 4.6-5.3 5.55-9.4 8.8-2.05 1.6-3.05 2.1-2.8.7-5.6 2.05-5.55 2.6-5.5 5.6 7.95 3.8 17.5 2 8.1-1.55 14.4-6.25 5.55-3.5 6.9-8.9 1-4.2-.95-7.35h.1l2.95-2.4q.6.5 1.95 5 1.2-2.45 1-5.8l-.5-2.8 1.55-1.25q1.65-1.4 2.15-2 0-1-1-1.7-1-.65-1.75-.25-1.8 2.05-3.75 3.9-1.7-1.3-3.6-1.2z"/><path stroke="#E16642" stroke-width="2.75" stroke-linejoin="round" stroke-linecap="round" fill="none" d="M46.9 25.05q1.15-.95 2.7-1.05 1.9-.1 3.6 1.2 1.95-1.85 3.75-3.9.75-.4 1.75.25 1 .7 1 1.7-.5.6-2.15 2L56 26.5l.5 2.8q.2 3.35-1 5.8-1.35-4.5-1.95-5l-2.95 2.4h-.1q1.95 3.15.95 7.35-1.35 5.4-6.9 8.9-6.3 4.7-14.4 6.25-9.55 1.8-17.5-2-.05-3 5.5-5.6 2.8-1.35 5.6-2.05 1-.5 3.05-2.1 4.1-3.25 9.4-8.8 4.4-4.6 9.05-4.6 1.3 0 2.35.3 2.65-2.45 3.15-3.1-1.95-1.75-3.85-2z"/><path fill="#FEFEFE" d="M53.2 25.2q-1.7-1.3-3.6-1.2-1.55.1-2.7 1.05 1.9.25 3.85 2-.5.65-3.15 3.1-1.05-.3-2.35-.3-4.65 0-9.05 4.6-5.3 5.55-9.4 8.8-2.05 1.6-3.05 2.1-2.8.7-5.6 2.05-5.55 2.6-5.5 5.6 7.95 3.8 17.5 2 8.1-1.55 14.4-6.25 5.55-3.5 6.9-8.9 1-4.2-.95-7.35h.1l2.95-2.4q.6.5 1.95 5 1.2-2.45 1-5.8l-.5-2.8 1.55-1.25q1.65-1.4 2.15-2 0-1-1-1.7-1-.65-1.75-.25-1.8 2.05-3.75 3.9z"/><path fill="#E16642" d="M36.06 9.236q-1.512.353-2.49 1.48 1.915-.066 4.126 1.34-.387.723-2.598 3.575-1.085-.124-2.368.09-4.586.764-8.171 6.024-4.317 6.345-7.827 10.224-1.76 1.915-2.664 2.572-2.647 1.15-5.187 2.942-5.048 3.476-4.506 6.427 8.466 2.443 17.59-.9 7.736-2.86 13.179-8.53 4.9-4.365 5.345-9.913.296-4.307-2.145-7.094l.099-.017 2.516-2.852q.674.395 2.744 4.612.782-2.614.034-5.885l-.953-2.68 1.324-1.488q1.398-1.652 1.792-2.326-.164-.986-1.265-1.512-1.093-.477-1.768.04-1.438 2.318-3.058 4.463-1.89-1.003-3.748-.592z"/><path stroke="#E16642" stroke-width="2.75" stroke-linejoin="round" stroke-linecap="round" fill="none" d="M33.57 10.715q.978-1.126 2.49-1.479 1.858-.41 3.749.592 1.62-2.145 3.058-4.462.675-.518 1.768-.041 1.101.526 1.265 1.512-.394.674-1.792 2.326l-1.324 1.488.953 2.68q.748 3.271-.034 5.885-2.07-4.217-2.744-4.612l-2.516 2.852-.099.017q2.441 2.787 2.145 7.094-.445 5.548-5.345 9.912-5.443 5.671-13.178 8.53-9.125 3.344-17.59.901-.543-2.95 4.505-6.427 2.54-1.791 5.187-2.942.904-.657 2.664-2.572 3.51-3.88 7.827-10.224 3.585-5.26 8.171-6.024 1.283-.214 2.368-.09 2.211-2.852 2.598-3.575-2.211-1.406-4.126-1.34z"/><path fill="#FEFEFE" d="M39.809 9.828q-1.89-1.003-3.748-.592-1.513.353-2.491 1.48 1.915-.066 4.126 1.34-.387.723-2.598 3.575-1.085-.124-2.368.09-4.586.764-8.171 6.024-4.317 6.345-7.827 10.224-1.76 1.915-2.664 2.572-2.647 1.15-5.187 2.942-5.048 3.476-4.506 6.427 8.466 2.443 17.59-.9 7.736-2.86 13.179-8.53 4.9-4.365 5.345-9.913.296-4.307-2.145-7.094l.099-.017 2.516-2.852q.674.395 2.744 4.612.782-2.614.034-5.885l-.953-2.68 1.324-1.488q1.398-1.652 1.792-2.326-.164-.986-1.265-1.512-1.093-.477-1.768.04-1.438 2.318-3.058 4.463z"/></svg>