<svg id="Layer_1" data-name="Layer 1" xmlns="http://www.w3.org/2000/svg" viewBox="0 0 64 64"><defs><clipPath id="clip-path"><path d="M-56.09 86.15a32 32 0 0132 32 32 32 0 01-32 32 32 32 0 01-32-32 32 32 0 0132-32z" clip-rule="evenodd" fill="#fcbb00"/></clipPath><clipPath id="clip-path-2"><rect class="cls-1" x="165.91" y="5.15" width="64" height="64" rx="7"/></clipPath><style>.cls-1{fill:#fcbb00}.cls-6{fill:#1a1a18}</style></defs><path d="M-56.09 86.15a32 32 0 0132 32 32 32 0 01-32 32 32 32 0 01-32-32 32 32 0 0132-32z" fill-rule="evenodd" fill="#fcbb00"/><rect class="cls-1" x="165.91" y="5.15" width="64" height="64" rx="7"/><rect class="cls-1" width="64" height="64" rx="7"/><path class="cls-6" d="M48.4 47.21a1.2 1.2 0 00.2-.7 1.16 1.16 0 00-.39-.94 1.78 1.78 0 00-1.12-.32h-1.46v4.17h.72v-1.61h.81l.84 1.61h.78l-.94-1.74a1.31 1.31 0 00.56-.47zm-1.31 0h-.74v-1.4h.77a.82.82 0 01.56.19.68.68 0 01.19.52.69.69 0 01-.2.51.86.86 0 01-.58.2zM34.14 15.82a3.2 3.2 0 00-6.39 0v1a9.29 9.29 0 00-6.51-2.51 9 9 0 00-7.44 3.49Q11 21.32 11 27.27q0 5.55 2.63 8.85a8.6 8.6 0 007.09 3.29 9.25 9.25 0 007-2.63V39c0 5.77-3 7.75-6.1 7.74a18.57 18.57 0 01-8.14-1.4c-.09 1-.14 2-.25 3 3.75 2 11.64 1.89 14.49-.52v1.41a2.18 2.18 0 104.36 0v-13h2zM26.41 33a4.88 4.88 0 01-4.89 3 5.14 5.14 0 01-4.74-2.48 12 12 0 01-1.49-6.21 13.76 13.76 0 011.49-6.63 5.05 5.05 0 014.78-2.74 5.32 5.32 0 015.22 3.22 12.8 12.8 0 01.95 5.32A15.93 15.93 0 0126.41 33zm24.76-18.72H39.24a2.17 2.17 0 00-4.27.57v26.67a3 3 0 00-.86 2.12v7.25a.48.48 0 001 0v-5.12a.37.37 0 01.71 0v5.14a.49.49 0 00.49.47.48.48 0 00.48-.47v-5.14a.35.35 0 01.35-.26.37.37 0 01.36.26v5.14a.48.48 0 00.48.47.49.49 0 00.49-.47v-5.14a.36.36 0 01.36-.26.35.35 0 01.35.26v5.14a.48.48 0 00.48.47.49.49 0 00.49-.49v-7.27a3 3 0 00-.87-2.11v-6.08h9.53a1.78 1.78 0 100-3.56h-9.48v-14h11.84a1.8 1.8 0 000-3.6z"/><path class="cls-6" d="M48.67 44.16a3.86 3.86 0 00-2.07-.33 3.56 3.56 0 00-3 4.41 3.68 3.68 0 001.65 2.21 3.58 3.58 0 005.18-4.28 3.66 3.66 0 00-1.76-2.01zm.83 5a3 3 0 01-4.59.3 3.08 3.08 0 01-.29-3.88 3.23 3.23 0 011.57-1.16 3 3 0 013.4 1.24 3.09 3.09 0 01-.09 3.52z"/></svg>