<svg width="12" height="16" xmlns="http://www.w3.org/2000/svg"><path d="M3.067 6.17v-.225c.01-.678-.04-1.363.04-2.03.158-1.315 1.27-2.195 2.61-2.143 1.208.047 2.25 1.065 2.325 2.326.04.68.007 1.368.007 2.07H3.066zm3.093 4.79c-.084.1-.135.174-.133.305.006.513.004 1.026.002 1.54-.002.326-.186.534-.47.535-.284 0-.47-.207-.473-.533-.002-.257 0-.514 0-.77 0-.102-.003-.204-.002-.306 0-.034 0-.067.002-.1.013-.317 0-.584-.283-.832-.36-.316-.395-.922-.164-1.364.212-.406.54-.63 1.005-.598.642.042 1.125.783.92 1.47-.07.24-.242.458-.406.652zM9.98 6.2c-.063-.01-.126-.027-.198-.043 0-.592.004-1.172-.002-1.752a5.859 5.859 0 00-.043-.7C9.44 1.446 7.424-.27 5.042.037 2.828.323 1.334 2.12 1.334 4.404V6.16c-.05.013-.078.022-.106.027C.408 6.334 0 6.83 0 7.683c0 2.277 0 4.555.002 6.833 0 .142.003.29.036.425.162.678.675 1.056 1.43 1.057 1.554.003 3.11 0 4.664 0 1.187 0 2.373.006 3.56 0 .884-.006 1.424-.574 1.424-1.48v-2.782c0-1.395.002-2.79 0-4.185-.003-.692-.468-1.238-1.136-1.348z" fill="#555" fill-rule="evenodd"/></svg>